<svg xmlns="http://www.w3.org/2000/svg" xmlns:xlink="http://www.w3.org/1999/xlink" width="1200" zoomAndPan="magnify" viewBox="0 0 900 187.499995" height="250" preserveAspectRatio="xMidYMid meet" version="1.0"><defs><g/><clipPath id="deaec81129"><path d="M 139.898438 52.980469 L 193.003906 52.980469 L 193.003906 127.78125 L 139.898438 127.78125 Z M 139.898438 52.980469 " clip-rule="nonzero"/></clipPath></defs><g clip-path="url(#deaec81129)"><path fill="#000000" d="M 153.222656 63.621094 C 153.289062 60.839844 155.558594 58.605469 158.347656 58.605469 L 160.84375 58.605469 C 160.84375 55.5 163.359375 52.984375 166.453125 52.984375 C 169.546875 52.984375 172.0625 55.5 172.0625 58.605469 C 172.0625 58.605469 174.554688 58.605469 174.554688 58.605469 C 177.347656 58.605469 179.617188 60.839844 179.679688 63.621094 L 184.96875 63.621094 C 189.410156 63.621094 193.007812 67.234375 193.007812 71.683594 C 193.007812 83.359375 193.007812 108.042969 193.007812 119.71875 C 193.007812 124.171875 189.410156 127.78125 184.96875 127.78125 C 175.421875 127.78125 157.484375 127.78125 147.9375 127.78125 C 143.496094 127.78125 139.898438 124.171875 139.898438 119.71875 C 139.898438 108.042969 139.898438 83.359375 139.898438 71.683594 C 139.898438 67.234375 143.496094 63.621094 147.9375 63.621094 Z M 179.683594 66.996094 L 184.96875 66.996094 C 187.550781 66.996094 189.644531 69.09375 189.644531 71.683594 C 189.644531 83.359375 189.644531 108.042969 189.644531 119.71875 C 189.644531 122.308594 187.550781 124.40625 184.96875 124.40625 C 184.96875 124.40625 147.945312 124.40625 147.9375 124.40625 C 145.355469 124.40625 143.261719 122.308594 143.261719 119.71875 C 143.261719 108.042969 143.261719 83.359375 143.261719 71.683594 C 143.261719 69.09375 145.355469 66.996094 147.9375 66.996094 L 153.222656 66.996094 L 153.222656 67.480469 C 153.222656 70.320312 155.519531 72.621094 158.347656 72.621094 C 163.019531 72.621094 169.886719 72.621094 174.554688 72.621094 C 177.386719 72.621094 179.683594 70.320312 179.683594 67.480469 Z M 185.328125 112.835938 L 147.578125 112.835938 L 147.578125 115.011719 L 185.328125 115.011719 Z M 185.328125 103.703125 L 147.578125 103.703125 L 147.578125 105.878906 L 185.328125 105.878906 Z M 185.328125 94.566406 L 147.578125 94.566406 L 147.578125 96.742188 L 185.328125 96.742188 Z M 185.328125 85.433594 L 147.578125 85.433594 L 147.578125 87.609375 L 185.328125 87.609375 Z M 185.328125 76.296875 L 147.578125 76.296875 L 147.578125 78.472656 L 185.328125 78.472656 Z M 166.453125 55.035156 C 167.382812 55.035156 168.136719 55.792969 168.136719 56.722656 C 168.136719 57.652344 167.382812 58.410156 166.453125 58.410156 C 165.523438 58.410156 164.769531 57.652344 164.769531 56.722656 C 164.769531 55.792969 165.523438 55.035156 166.453125 55.035156 Z M 166.453125 55.035156 " fill-opacity="1" fill-rule="evenodd"/></g><g fill="#000000" fill-opacity="1"><g transform="translate(212.257581, 126.169045)"><g><path d="M 22.65625 -51.171875 L 3.125 -51.171875 L 3.125 -64.1875 L 56.3125 -64.1875 L 56.3125 -51.171875 L 36.765625 -51.171875 L 36.765625 0 L 22.65625 0 Z M 22.65625 -51.171875 "/></g></g></g><g fill="#000000" fill-opacity="1"><g transform="translate(271.672113, 126.169045)"><g><path d="M 20.171875 0.921875 C 17.847656 0.921875 15.660156 0.597656 13.609375 -0.046875 C 11.566406 -0.691406 9.78125 -1.65625 8.25 -2.9375 C 6.71875 -4.21875 5.507812 -5.789062 4.625 -7.65625 C 3.738281 -9.519531 3.296875 -11.675781 3.296875 -14.125 L 3.296875 -14.3125 C 3.296875 -17 3.785156 -19.316406 4.765625 -21.265625 C 5.742188 -23.222656 7.101562 -24.84375 8.84375 -26.125 C 10.59375 -27.414062 12.671875 -28.378906 15.078125 -29.015625 C 17.492188 -29.660156 20.171875 -29.984375 23.109375 -29.984375 C 25.617188 -29.984375 27.804688 -29.800781 29.671875 -29.4375 C 31.535156 -29.070312 33.351562 -28.582031 35.125 -27.96875 L 35.125 -28.796875 C 35.125 -31.734375 34.234375 -33.960938 32.453125 -35.484375 C 30.679688 -37.015625 28.054688 -37.78125 24.578125 -37.78125 C 21.890625 -37.78125 19.519531 -37.550781 17.46875 -37.09375 C 15.414062 -36.632812 13.257812 -35.976562 11 -35.125 L 7.515625 -45.765625 C 10.203125 -46.921875 13.015625 -47.863281 15.953125 -48.59375 C 18.890625 -49.332031 22.4375 -49.703125 26.59375 -49.703125 C 30.445312 -49.703125 33.734375 -49.226562 36.453125 -48.28125 C 39.171875 -47.332031 41.414062 -45.972656 43.1875 -44.203125 C 45.019531 -42.367188 46.363281 -40.117188 47.21875 -37.453125 C 48.082031 -34.796875 48.515625 -31.816406 48.515625 -28.515625 L 48.515625 0 L 35.03125 0 L 35.03125 -5.3125 C 33.320312 -3.414062 31.273438 -1.898438 28.890625 -0.765625 C 26.503906 0.359375 23.597656 0.921875 20.171875 0.921875 Z M 24.390625 -8.71875 C 27.691406 -8.71875 30.335938 -9.507812 32.328125 -11.09375 C 34.316406 -12.6875 35.3125 -14.765625 35.3125 -17.328125 L 35.3125 -19.8125 C 34.082031 -20.363281 32.71875 -20.804688 31.21875 -21.140625 C 29.726562 -21.472656 28.125 -21.640625 26.40625 -21.640625 C 23.414062 -21.640625 21.0625 -21.054688 19.34375 -19.890625 C 17.632812 -18.734375 16.78125 -17.054688 16.78125 -14.859375 L 16.78125 -14.671875 C 16.78125 -12.773438 17.484375 -11.304688 18.890625 -10.265625 C 20.296875 -9.234375 22.128906 -8.71875 24.390625 -8.71875 Z M 24.390625 -8.71875 "/></g></g></g><g fill="#000000" fill-opacity="1"><g transform="translate(325.952065, 126.169045)"><g><path d="M 23.46875 0.921875 C 19.988281 0.921875 16.429688 0.328125 12.796875 -0.859375 C 9.160156 -2.054688 5.691406 -3.941406 2.390625 -6.515625 L 8.34375 -15.6875 C 11.03125 -13.726562 13.703125 -12.257812 16.359375 -11.28125 C 19.023438 -10.300781 21.519531 -9.8125 23.84375 -9.8125 C 25.863281 -9.8125 27.347656 -10.144531 28.296875 -10.8125 C 29.242188 -11.488281 29.71875 -12.378906 29.71875 -13.484375 L 29.71875 -13.65625 C 29.71875 -14.394531 29.441406 -15.039062 28.890625 -15.59375 C 28.335938 -16.144531 27.585938 -16.617188 26.640625 -17.015625 C 25.691406 -17.410156 24.601562 -17.789062 23.375 -18.15625 C 22.15625 -18.519531 20.875 -18.914062 19.53125 -19.34375 C 17.820312 -19.832031 16.09375 -20.425781 14.34375 -21.125 C 12.601562 -21.832031 11.03125 -22.75 9.625 -23.875 C 8.21875 -25.007812 7.070312 -26.398438 6.1875 -28.046875 C 5.300781 -29.703125 4.859375 -31.722656 4.859375 -34.109375 L 4.859375 -34.296875 C 4.859375 -36.804688 5.332031 -39.019531 6.28125 -40.9375 C 7.226562 -42.863281 8.507812 -44.5 10.125 -45.84375 C 11.75 -47.195312 13.644531 -48.207031 15.8125 -48.875 C 17.988281 -49.550781 20.328125 -49.890625 22.828125 -49.890625 C 25.953125 -49.890625 29.117188 -49.382812 32.328125 -48.375 C 35.535156 -47.363281 38.484375 -45.972656 41.171875 -44.203125 L 35.859375 -34.578125 C 33.410156 -35.984375 31.023438 -37.097656 28.703125 -37.921875 C 26.378906 -38.742188 24.332031 -39.15625 22.5625 -39.15625 C 20.84375 -39.15625 19.554688 -38.832031 18.703125 -38.1875 C 17.847656 -37.550781 17.421875 -36.742188 17.421875 -35.765625 L 17.421875 -35.578125 C 17.421875 -34.910156 17.695312 -34.316406 18.25 -33.796875 C 18.800781 -33.273438 19.535156 -32.785156 20.453125 -32.328125 C 21.367188 -31.867188 22.421875 -31.425781 23.609375 -31 C 24.804688 -30.570312 26.078125 -30.144531 27.421875 -29.71875 C 29.128906 -29.164062 30.867188 -28.503906 32.640625 -27.734375 C 34.421875 -26.972656 36.015625 -26.039062 37.421875 -24.9375 C 38.828125 -23.84375 39.988281 -22.5 40.90625 -20.90625 C 41.820312 -19.320312 42.28125 -17.394531 42.28125 -15.125 L 42.28125 -14.953125 C 42.28125 -12.203125 41.804688 -9.832031 40.859375 -7.84375 C 39.910156 -5.851562 38.578125 -4.21875 36.859375 -2.9375 C 35.148438 -1.65625 33.148438 -0.691406 30.859375 -0.046875 C 28.566406 0.597656 26.101562 0.921875 23.46875 0.921875 Z M 23.46875 0.921875 "/></g></g></g><g fill="#000000" fill-opacity="1"><g transform="translate(371.979989, 126.169045)"><g><path d="M 6.234375 -66.9375 L 20.171875 -66.9375 L 20.171875 -31.265625 L 36.5 -49.15625 L 53.1875 -49.15625 L 34.484375 -29.796875 L 53.828125 0 L 37.6875 0 L 25.125 -20.171875 L 20.171875 -14.953125 L 20.171875 0 L 6.234375 0 Z M 6.234375 -66.9375 "/></g></g></g><g fill="#000000" fill-opacity="1"><g transform="translate(426.259952, 126.169045)"><g><path d="M 6.234375 -49.15625 L 20.171875 -49.15625 L 20.171875 -42.1875 C 20.960938 -43.226562 21.832031 -44.21875 22.78125 -45.15625 C 23.726562 -46.101562 24.78125 -46.941406 25.9375 -47.671875 C 27.101562 -48.410156 28.40625 -48.992188 29.84375 -49.421875 C 31.28125 -49.847656 32.882812 -50.0625 34.65625 -50.0625 C 37.90625 -50.0625 40.703125 -49.390625 43.046875 -48.046875 C 45.398438 -46.703125 47.222656 -44.78125 48.515625 -42.28125 C 50.648438 -44.84375 53.03125 -46.78125 55.65625 -48.09375 C 58.289062 -49.40625 61.289062 -50.0625 64.65625 -50.0625 C 69.851562 -50.0625 73.914062 -48.535156 76.84375 -45.484375 C 79.78125 -42.429688 81.25 -37.9375 81.25 -32 L 81.25 0 L 67.3125 0 L 67.3125 -27.421875 C 67.3125 -30.722656 66.609375 -33.210938 65.203125 -34.890625 C 63.796875 -36.578125 61.78125 -37.421875 59.15625 -37.421875 C 56.519531 -37.421875 54.453125 -36.578125 52.953125 -34.890625 C 51.460938 -33.210938 50.71875 -30.722656 50.71875 -27.421875 L 50.71875 0 L 36.765625 0 L 36.765625 -27.421875 C 36.765625 -30.722656 36.0625 -33.210938 34.65625 -34.890625 C 33.25 -36.578125 31.234375 -37.421875 28.609375 -37.421875 C 25.984375 -37.421875 23.921875 -36.578125 22.421875 -34.890625 C 20.921875 -33.210938 20.171875 -30.722656 20.171875 -27.421875 L 20.171875 0 L 6.234375 0 Z M 6.234375 -49.15625 "/></g></g></g><g fill="#000000" fill-opacity="1"><g transform="translate(513.364581, 126.169045)"><g><path d="M 20.171875 0.921875 C 17.847656 0.921875 15.660156 0.597656 13.609375 -0.046875 C 11.566406 -0.691406 9.78125 -1.65625 8.25 -2.9375 C 6.71875 -4.21875 5.507812 -5.789062 4.625 -7.65625 C 3.738281 -9.519531 3.296875 -11.675781 3.296875 -14.125 L 3.296875 -14.3125 C 3.296875 -17 3.785156 -19.316406 4.765625 -21.265625 C 5.742188 -23.222656 7.101562 -24.84375 8.84375 -26.125 C 10.59375 -27.414062 12.671875 -28.378906 15.078125 -29.015625 C 17.492188 -29.660156 20.171875 -29.984375 23.109375 -29.984375 C 25.617188 -29.984375 27.804688 -29.800781 29.671875 -29.4375 C 31.535156 -29.070312 33.351562 -28.582031 35.125 -27.96875 L 35.125 -28.796875 C 35.125 -31.734375 34.234375 -33.960938 32.453125 -35.484375 C 30.679688 -37.015625 28.054688 -37.78125 24.578125 -37.78125 C 21.890625 -37.78125 19.519531 -37.550781 17.46875 -37.09375 C 15.414062 -36.632812 13.257812 -35.976562 11 -35.125 L 7.515625 -45.765625 C 10.203125 -46.921875 13.015625 -47.863281 15.953125 -48.59375 C 18.890625 -49.332031 22.4375 -49.703125 26.59375 -49.703125 C 30.445312 -49.703125 33.734375 -49.226562 36.453125 -48.28125 C 39.171875 -47.332031 41.414062 -45.972656 43.1875 -44.203125 C 45.019531 -42.367188 46.363281 -40.117188 47.21875 -37.453125 C 48.082031 -34.796875 48.515625 -31.816406 48.515625 -28.515625 L 48.515625 0 L 35.03125 0 L 35.03125 -5.3125 C 33.320312 -3.414062 31.273438 -1.898438 28.890625 -0.765625 C 26.503906 0.359375 23.597656 0.921875 20.171875 0.921875 Z M 24.390625 -8.71875 C 27.691406 -8.71875 30.335938 -9.507812 32.328125 -11.09375 C 34.316406 -12.6875 35.3125 -14.765625 35.3125 -17.328125 L 35.3125 -19.8125 C 34.082031 -20.363281 32.71875 -20.804688 31.21875 -21.140625 C 29.726562 -21.472656 28.125 -21.640625 26.40625 -21.640625 C 23.414062 -21.640625 21.0625 -21.054688 19.34375 -19.890625 C 17.632812 -18.734375 16.78125 -17.054688 16.78125 -14.859375 L 16.78125 -14.671875 C 16.78125 -12.773438 17.484375 -11.304688 18.890625 -10.265625 C 20.296875 -9.234375 22.128906 -8.71875 24.390625 -8.71875 Z M 24.390625 -8.71875 "/></g></g></g><g fill="#000000" fill-opacity="1"><g transform="translate(567.644543, 126.169045)"><g><path d="M 23.46875 0.921875 C 19.988281 0.921875 16.429688 0.328125 12.796875 -0.859375 C 9.160156 -2.054688 5.691406 -3.941406 2.390625 -6.515625 L 8.34375 -15.6875 C 11.03125 -13.726562 13.703125 -12.257812 16.359375 -11.28125 C 19.023438 -10.300781 21.519531 -9.8125 23.84375 -9.8125 C 25.863281 -9.8125 27.347656 -10.144531 28.296875 -10.8125 C 29.242188 -11.488281 29.71875 -12.378906 29.71875 -13.484375 L 29.71875 -13.65625 C 29.71875 -14.394531 29.441406 -15.039062 28.890625 -15.59375 C 28.335938 -16.144531 27.585938 -16.617188 26.640625 -17.015625 C 25.691406 -17.410156 24.601562 -17.789062 23.375 -18.15625 C 22.15625 -18.519531 20.875 -18.914062 19.53125 -19.34375 C 17.820312 -19.832031 16.09375 -20.425781 14.34375 -21.125 C 12.601562 -21.832031 11.03125 -22.75 9.625 -23.875 C 8.21875 -25.007812 7.070312 -26.398438 6.1875 -28.046875 C 5.300781 -29.703125 4.859375 -31.722656 4.859375 -34.109375 L 4.859375 -34.296875 C 4.859375 -36.804688 5.332031 -39.019531 6.28125 -40.9375 C 7.226562 -42.863281 8.507812 -44.5 10.125 -45.84375 C 11.75 -47.195312 13.644531 -48.207031 15.8125 -48.875 C 17.988281 -49.550781 20.328125 -49.890625 22.828125 -49.890625 C 25.953125 -49.890625 29.117188 -49.382812 32.328125 -48.375 C 35.535156 -47.363281 38.484375 -45.972656 41.171875 -44.203125 L 35.859375 -34.578125 C 33.410156 -35.984375 31.023438 -37.097656 28.703125 -37.921875 C 26.378906 -38.742188 24.332031 -39.15625 22.5625 -39.15625 C 20.84375 -39.15625 19.554688 -38.832031 18.703125 -38.1875 C 17.847656 -37.550781 17.421875 -36.742188 17.421875 -35.765625 L 17.421875 -35.578125 C 17.421875 -34.910156 17.695312 -34.316406 18.25 -33.796875 C 18.800781 -33.273438 19.535156 -32.785156 20.453125 -32.328125 C 21.367188 -31.867188 22.421875 -31.425781 23.609375 -31 C 24.804688 -30.570312 26.078125 -30.144531 27.421875 -29.71875 C 29.128906 -29.164062 30.867188 -28.503906 32.640625 -27.734375 C 34.421875 -26.972656 36.015625 -26.039062 37.421875 -24.9375 C 38.828125 -23.84375 39.988281 -22.5 40.90625 -20.90625 C 41.820312 -19.320312 42.28125 -17.394531 42.28125 -15.125 L 42.28125 -14.953125 C 42.28125 -12.203125 41.804688 -9.832031 40.859375 -7.84375 C 39.910156 -5.851562 38.578125 -4.21875 36.859375 -2.9375 C 35.148438 -1.65625 33.148438 -0.691406 30.859375 -0.046875 C 28.566406 0.597656 26.101562 0.921875 23.46875 0.921875 Z M 23.46875 0.921875 "/></g></g></g><g fill="#000000" fill-opacity="1"><g transform="translate(613.67248, 126.169045)"><g><path d="M 22.828125 0.828125 C 20.691406 0.828125 18.75 0.597656 17 0.140625 C 15.257812 -0.316406 13.765625 -1.125 12.515625 -2.28125 C 11.265625 -3.445312 10.285156 -4.960938 9.578125 -6.828125 C 8.878906 -8.691406 8.53125 -11.0625 8.53125 -13.9375 L 8.53125 -37.234375 L 2.65625 -37.234375 L 2.65625 -49.15625 L 8.53125 -49.15625 L 8.53125 -61.71875 L 22.46875 -61.71875 L 22.46875 -49.15625 L 34.015625 -49.15625 L 34.015625 -37.234375 L 22.46875 -37.234375 L 22.46875 -16.234375 C 22.46875 -13.054688 23.960938 -11.46875 26.953125 -11.46875 C 29.398438 -11.46875 31.695312 -12.046875 33.84375 -13.203125 L 33.84375 -2.015625 C 32.375 -1.160156 30.75 -0.472656 28.96875 0.046875 C 27.195312 0.566406 25.148438 0.828125 22.828125 0.828125 Z M 22.828125 0.828125 "/></g></g></g><g fill="#000000" fill-opacity="1"><g transform="translate(651.723458, 126.169045)"><g><path d="M 29.53125 1.09375 C 25.863281 1.09375 22.453125 0.484375 19.296875 -0.734375 C 16.148438 -1.953125 13.429688 -3.691406 11.140625 -5.953125 C 8.847656 -8.222656 7.054688 -10.898438 5.765625 -13.984375 C 4.484375 -17.066406 3.84375 -20.503906 3.84375 -24.296875 L 3.84375 -24.484375 C 3.84375 -27.972656 4.4375 -31.273438 5.625 -34.390625 C 6.820312 -37.503906 8.488281 -40.222656 10.625 -42.546875 C 12.769531 -44.867188 15.328125 -46.703125 18.296875 -48.046875 C 21.265625 -49.390625 24.550781 -50.0625 28.15625 -50.0625 C 32.25 -50.0625 35.789062 -49.328125 38.78125 -47.859375 C 41.78125 -46.398438 44.273438 -44.429688 46.265625 -41.953125 C 48.253906 -39.472656 49.722656 -36.628906 50.671875 -33.421875 C 51.617188 -30.210938 52.09375 -26.867188 52.09375 -23.390625 C 52.09375 -22.835938 52.078125 -22.253906 52.046875 -21.640625 C 52.015625 -21.023438 51.96875 -20.382812 51.90625 -19.71875 L 17.703125 -19.71875 C 18.367188 -16.539062 19.753906 -14.140625 21.859375 -12.515625 C 23.972656 -10.898438 26.59375 -10.09375 29.71875 -10.09375 C 32.039062 -10.09375 34.117188 -10.488281 35.953125 -11.28125 C 37.785156 -12.070312 39.679688 -13.351562 41.640625 -15.125 L 49.609375 -8.0625 C 47.285156 -5.195312 44.472656 -2.953125 41.171875 -1.328125 C 37.867188 0.285156 33.988281 1.09375 29.53125 1.09375 Z M 38.515625 -28.421875 C 38.085938 -31.546875 36.984375 -34.066406 35.203125 -35.984375 C 33.429688 -37.910156 31.082031 -38.875 28.15625 -38.875 C 25.21875 -38.875 22.847656 -37.925781 21.046875 -36.03125 C 19.242188 -34.144531 18.066406 -31.609375 17.515625 -28.421875 Z M 38.515625 -28.421875 "/></g></g></g><g fill="#000000" fill-opacity="1"><g transform="translate(707.928859, 126.169045)"><g><path d="M 6.234375 -49.15625 L 20.171875 -49.15625 L 20.171875 -39.25 C 21.578125 -42.613281 23.503906 -45.300781 25.953125 -47.3125 C 28.398438 -49.332031 31.703125 -50.25 35.859375 -50.0625 L 35.859375 -35.484375 L 35.125 -35.484375 C 30.476562 -35.484375 26.820312 -34.078125 24.15625 -31.265625 C 21.5 -28.453125 20.171875 -24.082031 20.171875 -18.15625 L 20.171875 0 L 6.234375 0 Z M 6.234375 -49.15625 "/></g></g></g></svg>